<svg width="822" height="822" viewBox="0 0 822 822" fill="none" xmlns="http://www.w3.org/2000/svg">
<mask id="mask0_129_55" style="mask-type:alpha" maskUnits="userSpaceOnUse" x="7" y="7" width="808" height="808">
<path opacity="0.7" fill-rule="evenodd" clip-rule="evenodd" d="M457.597 366.744L392.79 349.379C381.776 346.428 370.455 352.964 367.504 363.978L350.139 428.786C347.188 439.799 353.724 451.12 364.738 454.071L429.545 471.436C440.559 474.388 451.88 467.852 454.831 456.838L472.196 392.03C475.147 381.016 468.611 369.696 457.597 366.744ZM393.153 348.024C381.391 344.872 369.301 351.853 366.149 363.615L348.784 428.422C345.632 440.185 352.612 452.275 364.375 455.427L429.182 472.792C440.944 475.943 453.035 468.963 456.186 457.201L473.551 392.393C476.703 380.631 469.723 368.541 457.961 365.389L393.153 348.024Z" fill="#CED5E0"/>
<path opacity="0.6" fill-rule="evenodd" clip-rule="evenodd" d="M520.95 325.901L355.715 281.626C342.563 278.102 329.043 285.907 325.519 299.059L281.245 464.295C277.72 477.447 285.526 490.966 298.678 494.491L463.914 538.765C477.066 542.29 490.585 534.484 494.109 521.332L538.384 356.096C541.908 342.944 534.103 329.425 520.95 325.901ZM356.078 280.271C342.177 276.546 327.889 284.795 324.164 298.696L279.889 463.932C276.164 477.833 284.414 492.121 298.315 495.846L463.55 540.121C477.451 543.845 491.74 535.596 495.465 521.695L539.739 356.459C543.464 342.559 535.215 328.27 521.314 324.545L356.078 280.271Z" fill="#CED5E0"/>
<path opacity="0.5" fill-rule="evenodd" clip-rule="evenodd" d="M585.029 287.649L319.98 216.63C305.758 212.819 291.14 221.259 287.329 235.48L216.309 500.53C212.499 514.751 220.939 529.369 235.16 533.18L500.209 604.2C514.431 608.011 529.049 599.571 532.86 585.349L603.88 320.3C607.69 306.078 599.251 291.46 585.029 287.649ZM320.343 215.274C305.373 211.263 289.985 220.147 285.974 235.117L214.954 500.166C210.943 515.137 219.827 530.524 234.797 534.535L499.846 605.555C514.816 609.566 530.204 600.682 534.215 585.712L605.235 320.663C609.246 305.693 600.362 290.305 585.392 286.294L320.343 215.274Z" fill="#CED5E0"/>
<path opacity="0.4" fill-rule="evenodd" clip-rule="evenodd" d="M657.139 246.315L277.395 144.563C263.173 140.752 248.555 149.192 244.744 163.413L142.992 543.157C139.181 557.379 147.621 571.997 161.843 575.808L541.587 677.56C555.809 681.371 570.427 672.931 574.237 658.709L675.99 278.965C679.8 264.744 671.36 250.125 657.139 246.315ZM277.758 143.207C262.788 139.196 247.4 148.08 243.389 163.05L141.637 542.794C137.625 557.765 146.509 573.152 161.48 577.163L541.224 678.915C556.194 682.927 571.581 674.043 575.593 659.073L677.345 279.329C681.356 264.358 672.472 248.971 657.502 244.959L277.758 143.207Z" fill="#CED5E0"/>
<path opacity="0.3" fill-rule="evenodd" clip-rule="evenodd" d="M726.152 204.911L240.022 74.6523C224.731 70.555 209.013 79.6294 204.916 94.9205L74.658 581.051C70.5608 596.342 79.6352 612.059 94.9262 616.156L581.057 746.415C596.348 750.512 612.065 741.438 616.162 726.147L746.42 240.016C750.518 224.725 741.443 209.008 726.152 204.911ZM240.385 73.297C224.345 68.9992 207.859 78.5178 203.561 94.5573L73.3027 580.688C69.0049 596.727 78.5235 613.214 94.563 617.512L580.694 747.77C596.733 752.068 613.22 742.549 617.517 726.51L747.776 240.379C752.074 224.34 742.555 207.853 726.515 203.555L240.385 73.297Z" fill="#CED5E0"/>
<path opacity="0.2" fill-rule="evenodd" clip-rule="evenodd" d="M790.481 166.726L204.287 9.65592C187.926 5.27218 171.11 14.9811 166.726 31.3414L9.65585 617.536C5.27212 633.896 14.981 650.712 31.3414 655.096L617.535 812.166C633.896 816.55 650.712 806.841 655.096 790.481L812.166 204.287C816.55 187.926 806.841 171.11 790.481 166.726ZM204.65 8.30061C187.541 3.71631 169.955 13.8694 165.371 30.9783L8.30055 617.172C3.71624 634.281 13.8694 651.867 30.9782 656.451L617.172 813.522C634.281 818.106 651.867 807.953 656.451 790.844L813.521 204.65C818.106 187.541 807.953 169.955 790.844 165.371L204.65 8.30061Z" fill="#CED5E0"/>
</mask>
<g mask="url(#mask0_129_55)">
<rect x="-198" y="-77" width="1217" height="975" fill="url(#paint0_linear_129_55)"/>
</g>
<defs>
<linearGradient id="paint0_linear_129_55" x1="409.928" y1="-203.316" x2="409.928" y2="513.5" gradientUnits="userSpaceOnUse">
<stop offset="0.835" stop-color="#CED5E0"/>
<stop offset="1" stop-color="white" stop-opacity="0"/>
</linearGradient>
</defs>
</svg>
