<svg width="808" height="808" viewBox="0 0 808 808" fill="none" xmlns="http://www.w3.org/2000/svg">
<mask id="mask0_127_63" style="mask-type:alpha" maskUnits="userSpaceOnUse" x="0" y="0" width="808" height="808">
<path opacity="0.7" fill-rule="evenodd" clip-rule="evenodd" d="M450.397 359.545L385.59 342.18C374.576 339.229 363.255 345.765 360.304 356.778L342.939 421.586C339.988 432.6 346.524 443.921 357.538 446.872L422.345 464.237C433.359 467.188 444.68 460.652 447.631 449.638L464.996 384.831C467.947 373.817 461.411 362.496 450.397 359.545ZM385.953 340.824C374.191 337.673 362.101 344.653 358.949 356.415L341.584 421.223C338.432 432.985 345.412 445.075 357.175 448.227L421.982 465.592C433.744 468.744 445.835 461.764 448.986 450.001L466.351 385.194C469.503 373.431 462.523 361.341 450.761 358.189L385.953 340.824Z" fill="#CED5E0"/>
<path opacity="0.6" fill-rule="evenodd" clip-rule="evenodd" d="M513.751 318.701L348.515 274.426C335.363 270.902 321.844 278.707 318.32 291.86L274.045 457.095C270.521 470.248 278.326 483.767 291.478 487.291L456.714 531.566C469.866 535.09 483.385 527.285 486.91 514.132L531.184 348.897C534.708 335.744 526.903 322.225 513.751 318.701ZM348.878 273.071C334.977 269.346 320.689 277.596 316.964 291.497L272.689 456.732C268.965 470.633 277.214 484.921 291.115 488.646L456.351 532.921C470.252 536.646 484.54 528.396 488.265 514.495L532.54 349.26C536.264 335.359 528.015 321.07 514.114 317.346L348.878 273.071Z" fill="#CED5E0"/>
<path opacity="0.5" fill-rule="evenodd" clip-rule="evenodd" d="M577.829 280.449L312.78 209.43C298.558 205.619 283.94 214.059 280.129 228.281L209.11 493.33C205.299 507.551 213.739 522.169 227.961 525.98L493.01 597C507.231 600.811 521.85 592.371 525.66 578.149L596.68 313.1C600.491 298.878 592.051 284.26 577.829 280.449ZM313.143 208.074C298.173 204.063 282.785 212.947 278.774 227.917L207.754 492.966C203.743 507.937 212.627 523.324 227.597 527.335L492.646 598.355C507.617 602.366 523.004 593.482 527.016 578.512L598.035 313.463C602.047 298.493 593.162 283.105 578.192 279.094L313.143 208.074Z" fill="#CED5E0"/>
<path opacity="0.4" fill-rule="evenodd" clip-rule="evenodd" d="M649.939 239.115L270.195 137.363C255.973 133.552 241.355 141.992 237.544 156.214L135.792 535.958C131.982 550.179 140.421 564.797 154.643 568.608L534.387 670.36C548.609 674.171 563.227 665.731 567.038 651.509L668.79 271.765C672.601 257.544 664.161 242.926 649.939 239.115ZM270.558 136.007C255.588 131.996 240.2 140.88 236.189 155.85L134.437 535.594C130.426 550.565 139.31 565.952 154.28 569.964L534.024 671.716C548.994 675.727 564.382 666.843 568.393 651.873L670.145 272.129C674.156 257.158 665.272 241.771 650.302 237.76L270.558 136.007Z" fill="#CED5E0"/>
<path opacity="0.3" fill-rule="evenodd" clip-rule="evenodd" d="M718.952 197.711L232.822 67.4526C217.531 63.3553 201.814 72.4297 197.716 87.7208L67.4582 573.851C63.361 589.142 72.4354 604.86 87.7264 608.957L573.857 739.215C589.148 743.312 604.865 734.238 608.962 718.947L739.221 232.816C743.318 217.525 734.243 201.808 718.952 197.711ZM233.185 66.0973C217.146 61.7995 200.659 71.3181 196.361 87.3576L66.1029 573.488C61.8051 589.528 71.3237 606.014 87.3632 610.312L573.494 740.57C589.533 744.868 606.02 735.35 610.318 719.31L740.576 233.18C744.874 217.14 735.355 200.653 719.316 196.356L233.185 66.0973Z" fill="#CED5E0"/>
<path opacity="0.2" fill-rule="evenodd" clip-rule="evenodd" d="M783.281 159.526L197.087 2.45606C180.726 -1.92768 163.91 7.78124 159.526 24.1416L2.45606 610.336C-1.92768 626.696 7.78124 643.512 24.1416 647.896L610.336 804.966C626.696 809.35 643.512 799.641 647.896 783.281L804.966 197.087C809.35 180.726 799.641 163.91 783.281 159.526ZM197.45 1.10076C180.341 -3.48354 162.755 6.66958 158.171 23.7784L1.10076 609.972C-3.48354 627.081 6.66958 644.667 23.7784 649.251L609.972 806.322C627.081 810.906 644.667 800.753 649.251 783.644L806.322 197.45C810.906 180.341 800.753 162.755 783.644 158.171L197.45 1.10076Z" fill="#CED5E0"/>
</mask>
<g mask="url(#mask0_127_63)">
<rect x="-205" y="-79" width="1217" height="994" fill="url(#paint0_linear_127_63)"/>
</g>
<defs>
<linearGradient id="paint0_linear_127_63" x1="402.928" y1="-207.777" x2="402.928" y2="450.194" gradientUnits="userSpaceOnUse">
<stop stop-color="white"/>
<stop offset="1" stop-color="white" stop-opacity="0"/>
</linearGradient>
</defs>
</svg>
